# MagicaVoxel @ Ephtracy

# group
o 

# material
mtllib minion2.mtl
usemtl palette

# normals
vn -1 0 0
vn 1 0 0
vn 0 0 1
vn 0 0 -1
vn 0 -1 0
vn 0 1 0

# texcoords
vt 0.482422 0.5
vt 0.509766 0.5
vt 0.513672 0.5
vt 0.818359 0.5
vt 0.962891 0.5
vt 0.966797 0.5
vt 0.994141 0.5

# verts
v 0.4 1.6 -1
v 0.4 1.6 -1.1
v 0.4 1.7 -1
v 0.4 1.7 -1.1
v 0.7 1.7 -1
v 0.7 1.7 -1.1
v 0.7 1.7 -1.2
v 0.7 1.8 -0.9
v 0.7 1.8 -1
v 0.7 1.8 -1.2
v 0.7 1.8 -1.3
v 0.7 2 -0.9
v 0.7 2 -1
v 0.7 2 -1.2
v 0.7 2 -1.3
v 0.7 2.1 -1
v 0.7 2.1 -1.2
v 0.8 1 -0.9
v 0.8 1 -1.1
v 0.8 1.1 -0.9
v 0.8 1.1 -1
v 0.8 1.1 -1.1
v 0.8 1.2 -0.9
v 0.8 1.2 -1
v 0.8 1.2 -1.1
v 0.8 1.2 -1.2
v 0.8 1.6 -0.9
v 0.8 1.6 -1
v 0.8 1.6 -1.1
v 0.8 1.6 -1.2
v 0.8 1.6 -1.3
v 0.8 1.7 -0.9
v 0.8 1.7 -1
v 0.8 1.7 -1.1
v 0.8 1.7 -1.2
v 0.8 1.8 -0.9
v 0.8 1.8 -1
v 0.8 1.8 -1.2
v 0.8 1.8 -1.3
v 0.8 2 -0.9
v 0.8 2 -1
v 0.8 2 -1.2
v 0.8 2 -1.3
v 0.8 2.1 -0.9
v 0.8 2.1 -1
v 0.8 2.1 -1.2
v 0.8 2.1 -1.3
v 0.8 2.2 -1
v 0.8 2.2 -1.2
v 0.9 1.5 -1.2
v 0.9 1.5 -1.3
v 0.9 1.6 -1.2
v 0.9 1.6 -1.3
v 0.9 1.7 -1.3
v 0.9 1.7 -1.4
v 0.9 2 -0.8
v 0.9 2 -0.9
v 0.9 2.1 -0.8
v 0.9 2.1 -0.9
v 0.9 2.1 -1
v 0.9 2.1 -1.2
v 0.9 2.1 -1.3
v 0.9 2.1 -1.4
v 0.9 2.2 -0.9
v 0.9 2.2 -1
v 0.9 2.2 -1.2
v 0.9 2.2 -1.3
v 1 1.9 -0.8
v 1 1.9 -0.9
v 1 2 -0.8
v 1 2 -0.9
v 1.1 1 -0.9
v 1.1 1 -1.1
v 1.1 1.1 -0.9
v 1.1 1.1 -1
v 1.1 1.1 -1.1
v 1.1 1.2 -1
v 1.1 1.2 -1.1
v 1.1 1.3 -1
v 1.1 1.3 -1.1
v 0.9 1 -0.9
v 0.9 1 -1.1
v 0.9 1.1 -0.9
v 0.9 1.1 -1
v 0.9 1.1 -1.1
v 0.9 1.2 -1
v 0.9 1.2 -1.1
v 0.9 1.3 -1
v 0.9 1.3 -1.1
v 1.1 1.5 -1.2
v 1.1 1.5 -1.3
v 1.1 1.6 -1.2
v 1.1 1.6 -1.3
v 1.1 1.7 -1.3
v 1.1 1.7 -1.4
v 1.1 1.9 -0.8
v 1.1 1.9 -0.9
v 1.1 2.1 -0.8
v 1.1 2.1 -0.9
v 1.1 2.1 -1
v 1.1 2.1 -1.2
v 1.1 2.1 -1.3
v 1.1 2.1 -1.4
v 1.1 2.2 -0.9
v 1.1 2.2 -1
v 1.1 2.2 -1.2
v 1.1 2.2 -1.3
v 1.2 1 -0.9
v 1.2 1 -1.1
v 1.2 1.1 -0.9
v 1.2 1.1 -1
v 1.2 1.1 -1.1
v 1.2 1.2 -0.9
v 1.2 1.2 -1
v 1.2 1.2 -1.1
v 1.2 1.2 -1.2
v 1.2 1.6 -0.9
v 1.2 1.6 -1
v 1.2 1.6 -1.1
v 1.2 1.6 -1.2
v 1.2 1.6 -1.3
v 1.2 1.7 -0.9
v 1.2 1.7 -1
v 1.2 1.7 -1.1
v 1.2 1.7 -1.2
v 1.2 1.8 -0.9
v 1.2 1.8 -1
v 1.2 1.8 -1.2
v 1.2 1.8 -1.3
v 1.2 2 -0.9
v 1.2 2 -1
v 1.2 2 -1.2
v 1.2 2 -1.3
v 1.2 2.1 -0.9
v 1.2 2.1 -1
v 1.2 2.1 -1.2
v 1.2 2.1 -1.3
v 1.2 2.2 -1
v 1.2 2.2 -1.2
v 1.3 1.7 -1
v 1.3 1.7 -1.1
v 1.3 1.7 -1.2
v 1.3 1.8 -0.9
v 1.3 1.8 -1
v 1.3 1.8 -1.2
v 1.3 1.8 -1.3
v 1.3 2 -0.9
v 1.3 2 -1
v 1.3 2 -1.2
v 1.3 2 -1.3
v 1.3 2.1 -1
v 1.3 2.1 -1.2
v 1.6 1.6 -1
v 1.6 1.6 -1.1
v 1.6 1.7 -1
v 1.6 1.7 -1.1
v 0.9 2 -0.8
v 0.9 2.1 -0.8
v 1 1.9 -0.8
v 1 2 -0.8
v 1.1 1.9 -0.8
v 1.1 2.1 -0.8
v 0.7 1.8 -0.9
v 0.7 2 -0.9
v 0.8 1 -0.9
v 0.8 1.1 -0.9
v 0.8 1.2 -0.9
v 0.8 1.6 -0.9
v 0.8 1.7 -0.9
v 0.8 1.8 -0.9
v 0.8 1.9 -0.9
v 0.8 2 -0.9
v 0.8 2.1 -0.9
v 0.9 1 -0.9
v 0.9 1.1 -0.9
v 0.9 1.2 -0.9
v 0.9 1.3 -0.9
v 0.9 1.4 -0.9
v 0.9 1.5 -0.9
v 0.9 1.8 -0.9
v 0.9 1.9 -0.9
v 0.9 2 -0.9
v 0.9 2.1 -0.9
v 0.9 2.2 -0.9
v 1 1.3 -0.9
v 1 1.4 -0.9
v 1 1.5 -0.9
v 1 1.6 -0.9
v 1 1.7 -0.9
v 1 1.8 -0.9
v 1 1.9 -0.9
v 1 2 -0.9
v 1.1 1 -0.9
v 1.1 1.1 -0.9
v 1.1 1.2 -0.9
v 1.1 1.6 -0.9
v 1.1 1.7 -0.9
v 1.1 1.8 -0.9
v 1.1 1.9 -0.9
v 1.1 2.1 -0.9
v 1.1 2.2 -0.9
v 1.2 1 -0.9
v 1.2 1.1 -0.9
v 1.2 1.2 -0.9
v 1.2 1.6 -0.9
v 1.2 1.7 -0.9
v 1.2 1.8 -0.9
v 1.2 1.9 -0.9
v 1.2 2 -0.9
v 1.2 2.1 -0.9
v 1.3 1.8 -0.9
v 1.3 2 -0.9
v 0.4 1.6 -1
v 0.4 1.7 -1
v 0.5 1.6 -1
v 0.5 1.7 -1
v 0.6 1.6 -1
v 0.6 1.7 -1
v 0.7 1.7 -1
v 0.7 1.8 -1
v 0.7 2 -1
v 0.7 2.1 -1
v 0.8 1.1 -1
v 0.8 1.2 -1
v 0.8 1.6 -1
v 0.8 1.7 -1
v 0.8 1.8 -1
v 0.8 2 -1
v 0.8 2.1 -1
v 0.8 2.2 -1
v 0.9 1.1 -1
v 0.9 1.2 -1
v 0.9 2.1 -1
v 0.9 2.2 -1
v 1.1 1.1 -1
v 1.1 1.2 -1
v 1.1 2.1 -1
v 1.1 2.2 -1
v 1.2 1.1 -1
v 1.2 1.2 -1
v 1.2 1.6 -1
v 1.2 1.7 -1
v 1.2 1.8 -1
v 1.2 2 -1
v 1.2 2.1 -1
v 1.2 2.2 -1
v 1.3 1.7 -1
v 1.3 1.8 -1
v 1.3 2 -1
v 1.3 2.1 -1
v 1.4 1.6 -1
v 1.4 1.7 -1
v 1.5 1.6 -1
v 1.5 1.7 -1
v 1.6 1.6 -1
v 1.6 1.7 -1
v 0.9 1.2 -1.1
v 0.9 1.3 -1.1
v 1.1 1.2 -1.1
v 1.1 1.3 -1.1
v 0.9 1.2 -1
v 0.9 1.3 -1
v 1.1 1.2 -1
v 1.1 1.3 -1
v 0.4 1.6 -1.1
v 0.4 1.7 -1.1
v 0.5 1.6 -1.1
v 0.5 1.7 -1.1
v 0.6 1.6 -1.1
v 0.6 1.7 -1.1
v 0.7 1.7 -1.1
v 0.8 1 -1.1
v 0.8 1.1 -1.1
v 0.8 1.2 -1.1
v 0.8 1.6 -1.1
v 0.8 1.7 -1.1
v 0.9 1 -1.1
v 0.9 1.1 -1.1
v 0.9 1.2 -1.1
v 1.1 1 -1.1
v 1.1 1.1 -1.1
v 1.1 1.2 -1.1
v 1.2 1 -1.1
v 1.2 1.1 -1.1
v 1.2 1.2 -1.1
v 1.2 1.6 -1.1
v 1.2 1.7 -1.1
v 1.3 1.7 -1.1
v 1.4 1.6 -1.1
v 1.4 1.7 -1.1
v 1.5 1.6 -1.1
v 1.5 1.7 -1.1
v 1.6 1.6 -1.1
v 1.6 1.7 -1.1
v 0.7 1.7 -1.2
v 0.7 1.8 -1.2
v 0.7 2 -1.2
v 0.7 2.1 -1.2
v 0.8 1.2 -1.2
v 0.8 1.6 -1.2
v 0.8 1.7 -1.2
v 0.8 1.8 -1.2
v 0.8 2 -1.2
v 0.8 2.1 -1.2
v 0.8 2.2 -1.2
v 0.9 1.5 -1.2
v 0.9 1.6 -1.2
v 0.9 2.1 -1.2
v 0.9 2.2 -1.2
v 1.1 1.5 -1.2
v 1.1 1.6 -1.2
v 1.1 2.1 -1.2
v 1.1 2.2 -1.2
v 1.2 1.2 -1.2
v 1.2 1.6 -1.2
v 1.2 1.7 -1.2
v 1.2 1.8 -1.2
v 1.2 2 -1.2
v 1.2 2.1 -1.2
v 1.2 2.2 -1.2
v 1.3 1.7 -1.2
v 1.3 1.8 -1.2
v 1.3 2 -1.2
v 1.3 2.1 -1.2
v 0.7 1.8 -1.3
v 0.7 2 -1.3
v 0.8 1.6 -1.3
v 0.8 1.8 -1.3
v 0.8 2 -1.3
v 0.8 2.1 -1.3
v 0.9 1.5 -1.3
v 0.9 1.6 -1.3
v 0.9 1.7 -1.3
v 0.9 2.1 -1.3
v 0.9 2.2 -1.3
v 1.1 1.5 -1.3
v 1.1 1.6 -1.3
v 1.1 1.7 -1.3
v 1.1 2.1 -1.3
v 1.1 2.2 -1.3
v 1.2 1.6 -1.3
v 1.2 1.8 -1.3
v 1.2 2 -1.3
v 1.2 2.1 -1.3
v 1.3 1.8 -1.3
v 1.3 2 -1.3
v 0.9 1.7 -1.4
v 0.9 2.1 -1.4
v 1.1 1.7 -1.4
v 1.1 2.1 -1.4
v 0.8 1 -0.9
v 0.9 1 -0.9
v 1.1 1 -0.9
v 1.2 1 -0.9
v 0.8 1 -1.1
v 0.9 1 -1.1
v 1.1 1 -1.1
v 1.2 1 -1.1
v 0.8 1.2 -0.9
v 0.9 1.2 -0.9
v 1.1 1.2 -0.9
v 1.2 1.2 -0.9
v 0.8 1.2 -1
v 0.9 1.2 -1
v 1.1 1.2 -1
v 1.2 1.2 -1
v 0.8 1.2 -1.1
v 0.9 1.2 -1.1
v 1.1 1.2 -1.1
v 1.2 1.2 -1.1
v 0.8 1.2 -1.2
v 1.2 1.2 -1.2
v 0.9 1.3 -1
v 1.1 1.3 -1
v 0.9 1.3 -1.1
v 1.1 1.3 -1.1
v 0.9 1.5 -1.2
v 1.1 1.5 -1.2
v 0.9 1.5 -1.3
v 1.1 1.5 -1.3
v 0.4 1.6 -1
v 0.5 1.6 -1
v 0.6 1.6 -1
v 0.8 1.6 -1
v 1.2 1.6 -1
v 1.4 1.6 -1
v 1.5 1.6 -1
v 1.6 1.6 -1
v 0.4 1.6 -1.1
v 0.5 1.6 -1.1
v 0.6 1.6 -1.1
v 0.8 1.6 -1.1
v 1.2 1.6 -1.1
v 1.4 1.6 -1.1
v 1.5 1.6 -1.1
v 1.6 1.6 -1.1
v 0.8 1.6 -1.2
v 0.9 1.6 -1.2
v 1.1 1.6 -1.2
v 1.2 1.6 -1.2
v 0.8 1.6 -1.3
v 0.9 1.6 -1.3
v 1.1 1.6 -1.3
v 1.2 1.6 -1.3
v 0.7 1.7 -1.1
v 0.8 1.7 -1.1
v 1.2 1.7 -1.1
v 1.3 1.7 -1.1
v 0.7 1.7 -1.2
v 0.8 1.7 -1.2
v 1.2 1.7 -1.2
v 1.3 1.7 -1.2
v 0.9 1.7 -1.3
v 1.1 1.7 -1.3
v 0.9 1.7 -1.4
v 1.1 1.7 -1.4
v 0.7 1.8 -0.9
v 0.8 1.8 -0.9
v 1.2 1.8 -0.9
v 1.3 1.8 -0.9
v 0.7 1.8 -1
v 0.8 1.8 -1
v 1.2 1.8 -1
v 1.3 1.8 -1
v 0.7 1.8 -1.2
v 0.8 1.8 -1.2
v 1.2 1.8 -1.2
v 1.3 1.8 -1.2
v 0.7 1.8 -1.3
v 0.8 1.8 -1.3
v 1.2 1.8 -1.3
v 1.3 1.8 -1.3
v 1 1.9 -0.8
v 1.1 1.9 -0.8
v 1 1.9 -0.9
v 1.1 1.9 -0.9
v 0.9 2 -0.8
v 1 2 -0.8
v 0.9 2 -0.9
v 1 2 -0.9
v 0.8 1.1 -0.9
v 0.9 1.1 -0.9
v 1.1 1.1 -0.9
v 1.2 1.1 -0.9
v 0.8 1.1 -1
v 0.9 1.1 -1
v 1.1 1.1 -1
v 1.2 1.1 -1
v 0.4 1.7 -1
v 0.5 1.7 -1
v 0.6 1.7 -1
v 0.7 1.7 -1
v 1.3 1.7 -1
v 1.4 1.7 -1
v 1.5 1.7 -1
v 1.6 1.7 -1
v 0.4 1.7 -1.1
v 0.5 1.7 -1.1
v 0.6 1.7 -1.1
v 0.7 1.7 -1.1
v 1.3 1.7 -1.1
v 1.4 1.7 -1.1
v 1.5 1.7 -1.1
v 1.6 1.7 -1.1
v 0.7 2 -0.9
v 0.8 2 -0.9
v 1.2 2 -0.9
v 1.3 2 -0.9
v 0.7 2 -1
v 0.8 2 -1
v 1.2 2 -1
v 1.3 2 -1
v 0.7 2 -1.2
v 0.8 2 -1.2
v 1.2 2 -1.2
v 1.3 2 -1.2
v 0.7 2 -1.3
v 0.8 2 -1.3
v 1.2 2 -1.3
v 1.3 2 -1.3
v 0.9 2.1 -0.8
v 1.1 2.1 -0.8
v 0.8 2.1 -0.9
v 0.9 2.1 -0.9
v 1.1 2.1 -0.9
v 1.2 2.1 -0.9
v 0.7 2.1 -1
v 0.8 2.1 -1
v 0.9 2.1 -1
v 1.1 2.1 -1
v 1.2 2.1 -1
v 1.3 2.1 -1
v 0.7 2.1 -1.2
v 0.8 2.1 -1.2
v 0.9 2.1 -1.2
v 1.1 2.1 -1.2
v 1.2 2.1 -1.2
v 1.3 2.1 -1.2
v 0.8 2.1 -1.3
v 0.9 2.1 -1.3
v 1.1 2.1 -1.3
v 1.2 2.1 -1.3
v 0.9 2.1 -1.4
v 1.1 2.1 -1.4
v 0.9 2.2 -0.9
v 1.1 2.2 -0.9
v 0.8 2.2 -1
v 0.9 2.2 -1
v 1.1 2.2 -1
v 1.2 2.2 -1
v 0.8 2.2 -1.2
v 0.9 2.2 -1.2
v 1.1 2.2 -1.2
v 1.2 2.2 -1.2
v 0.9 2.2 -1.3
v 1.1 2.2 -1.3

# faces
f 3/3/1 2/3/1 1/3/1
f 4/3/1 2/3/1 3/3/1
f 9/4/1 6/4/1 5/4/1
f 9/4/1 7/4/1 6/4/1
f 10/4/1 7/4/1 9/4/1
f 12/4/1 9/4/1 8/4/1
f 12/4/1 11/4/1 10/4/1
f 12/4/1 10/4/1 9/4/1
f 13/4/1 11/4/1 12/4/1
f 14/4/1 11/4/1 13/4/1
f 15/4/1 11/4/1 14/4/1
f 16/4/1 14/4/1 13/4/1
f 17/4/1 14/4/1 16/4/1
f 20/5/1 19/5/1 18/5/1
f 21/5/1 19/5/1 20/5/1
f 22/5/1 19/5/1 21/5/1
f 24/7/1 22/7/1 21/7/1
f 25/7/1 22/7/1 24/7/1
f 27/5/1 25/5/1 24/5/1
f 27/5/1 26/5/1 25/5/1
f 27/5/1 24/5/1 23/5/1
f 28/5/1 26/5/1 27/5/1
f 29/5/1 26/5/1 28/5/1
f 30/5/1 26/5/1 29/5/1
f 32/6/1 28/6/1 27/6/1
f 33/6/1 28/6/1 32/6/1
f 34/6/1 30/6/1 29/6/1
f 35/4/1 31/4/1 30/4/1
f 35/6/1 30/6/1 34/6/1
f 36/2/1 33/2/1 32/2/1
f 37/2/1 33/2/1 36/2/1
f 38/4/1 31/4/1 35/4/1
f 39/4/1 31/4/1 38/4/1
f 44/4/1 41/4/1 40/4/1
f 45/4/1 41/4/1 44/4/1
f 46/4/1 43/4/1 42/4/1
f 47/4/1 43/4/1 46/4/1
f 48/4/1 46/4/1 45/4/1
f 49/4/1 46/4/1 48/4/1
f 52/4/1 51/4/1 50/4/1
f 53/4/1 51/4/1 52/4/1
f 58/4/1 57/4/1 56/4/1
f 59/4/1 57/4/1 58/4/1
f 62/4/1 55/4/1 54/4/1
f 63/4/1 55/4/1 62/4/1
f 64/4/1 60/4/1 59/4/1
f 65/4/1 60/4/1 64/4/1
f 66/4/1 62/4/1 61/4/1
f 67/4/1 62/4/1 66/4/1
f 70/4/1 69/4/1 68/4/1
f 71/4/1 69/4/1 70/4/1
f 74/5/1 73/5/1 72/5/1
f 75/5/1 73/5/1 74/5/1
f 76/5/1 73/5/1 75/5/1
f 77/7/1 76/7/1 75/7/1
f 78/7/1 76/7/1 77/7/1
f 79/5/1 78/5/1 77/5/1
f 80/5/1 78/5/1 79/5/1
f 81/5/2 82/5/2 83/5/2
f 83/5/2 82/5/2 84/5/2
f 84/5/2 82/5/2 85/5/2
f 84/7/2 85/7/2 86/7/2
f 86/7/2 85/7/2 87/7/2
f 86/5/2 87/5/2 88/5/2
f 88/5/2 87/5/2 89/5/2
f 90/4/2 91/4/2 92/4/2
f 92/4/2 91/4/2 93/4/2
f 96/4/2 97/4/2 98/4/2
f 98/4/2 97/4/2 99/4/2
f 94/4/2 95/4/2 102/4/2
f 102/4/2 95/4/2 103/4/2
f 99/4/2 100/4/2 104/4/2
f 104/4/2 100/4/2 105/4/2
f 101/4/2 102/4/2 106/4/2
f 106/4/2 102/4/2 107/4/2
f 108/5/2 109/5/2 110/5/2
f 110/5/2 109/5/2 111/5/2
f 111/5/2 109/5/2 112/5/2
f 111/7/2 112/7/2 114/7/2
f 114/7/2 112/7/2 115/7/2
f 114/5/2 115/5/2 117/5/2
f 115/5/2 116/5/2 117/5/2
f 113/5/2 114/5/2 117/5/2
f 117/5/2 116/5/2 118/5/2
f 118/5/2 116/5/2 119/5/2
f 119/5/2 116/5/2 120/5/2
f 117/6/2 118/6/2 122/6/2
f 122/6/2 118/6/2 123/6/2
f 119/6/2 120/6/2 124/6/2
f 120/4/2 121/4/2 125/4/2
f 124/6/2 120/6/2 125/6/2
f 122/3/2 123/3/2 126/3/2
f 126/3/2 123/3/2 127/3/2
f 125/4/2 121/4/2 128/4/2
f 128/4/2 121/4/2 129/4/2
f 130/4/2 131/4/2 134/4/2
f 134/4/2 131/4/2 135/4/2
f 132/4/2 133/4/2 136/4/2
f 136/4/2 133/4/2 137/4/2
f 135/4/2 136/4/2 138/4/2
f 138/4/2 136/4/2 139/4/2
f 140/4/2 141/4/2 144/4/2
f 141/4/2 142/4/2 144/4/2
f 144/4/2 142/4/2 145/4/2
f 143/4/2 144/4/2 147/4/2
f 145/4/2 146/4/2 147/4/2
f 144/4/2 145/4/2 147/4/2
f 147/4/2 146/4/2 148/4/2
f 148/4/2 146/4/2 149/4/2
f 149/4/2 146/4/2 150/4/2
f 148/4/2 149/4/2 151/4/2
f 151/4/2 149/4/2 152/4/2
f 153/3/2 154/3/2 155/3/2
f 155/3/2 154/3/2 156/3/2
f 160/4/3 158/4/3 157/4/3
f 161/4/3 160/4/3 159/4/3
f 162/4/3 158/4/3 160/4/3
f 162/4/3 160/4/3 161/4/3
f 170/4/3 164/4/3 163/4/3
f 171/4/3 164/4/3 170/4/3
f 172/4/3 164/4/3 171/4/3
f 174/5/3 166/5/3 165/5/3
f 175/5/3 166/5/3 174/5/3
f 176/5/3 168/5/3 167/5/3
f 177/5/3 168/5/3 176/5/3
f 178/5/3 168/5/3 177/5/3
f 179/5/3 168/5/3 178/5/3
f 180/2/3 170/2/3 169/2/3
f 180/1/3 171/1/3 170/1/3
f 181/4/3 173/4/3 172/4/3
f 181/1/3 171/1/3 180/1/3
f 181/4/3 172/4/3 171/4/3
f 182/4/3 173/4/3 181/4/3
f 183/4/3 173/4/3 182/4/3
f 185/5/3 178/5/3 177/5/3
f 185/6/3 177/6/3 176/6/3
f 186/6/3 179/6/3 178/6/3
f 186/5/3 178/5/3 185/5/3
f 187/5/3 168/5/3 179/5/3
f 187/6/3 179/6/3 186/6/3
f 188/6/3 169/6/3 168/6/3
f 188/5/3 168/5/3 187/5/3
f 189/2/3 180/2/3 169/2/3
f 189/6/3 169/6/3 188/6/3
f 190/3/3 181/3/3 180/3/3
f 190/2/3 180/2/3 189/2/3
f 191/4/3 182/4/3 181/4/3
f 191/3/3 181/3/3 190/3/3
f 192/4/3 182/4/3 191/4/3
f 195/6/3 187/6/3 186/6/3
f 195/6/3 188/6/3 187/6/3
f 195/6/3 186/6/3 185/6/3
f 195/6/3 185/6/3 176/6/3
f 196/5/3 189/5/3 188/5/3
f 196/6/3 188/6/3 195/6/3
f 197/3/3 191/3/3 190/3/3
f 197/5/3 189/5/3 196/5/3
f 197/3/3 190/3/3 189/3/3
f 198/3/3 191/3/3 197/3/3
f 199/3/3 191/3/3 198/3/3
f 200/4/3 184/4/3 183/4/3
f 201/4/3 184/4/3 200/4/3
f 202/5/3 194/5/3 193/5/3
f 203/5/3 194/5/3 202/5/3
f 204/5/3 196/5/3 195/5/3
f 205/6/3 197/6/3 196/6/3
f 205/5/3 196/5/3 204/5/3
f 206/3/3 198/3/3 197/3/3
f 206/6/3 197/6/3 205/6/3
f 207/1/3 199/1/3 198/1/3
f 207/3/3 198/3/3 206/3/3
f 208/4/3 200/4/3 199/4/3
f 208/1/3 199/1/3 207/1/3
f 209/4/3 200/4/3 208/4/3
f 210/4/3 200/4/3 209/4/3
f 211/4/3 209/4/3 208/4/3
f 211/4/3 208/4/3 207/4/3
f 212/4/3 209/4/3 211/4/3
f 215/3/3 214/3/3 213/3/3
f 216/3/3 214/3/3 215/3/3
f 217/6/3 216/6/3 215/6/3
f 218/6/3 216/6/3 217/6/3
f 219/5/3 218/5/3 217/5/3
f 225/5/3 219/5/3 217/5/3
f 226/4/3 220/4/3 219/4/3
f 226/5/3 219/5/3 225/5/3
f 227/4/3 220/4/3 226/4/3
f 228/4/3 222/4/3 221/4/3
f 229/4/3 222/4/3 228/4/3
f 231/7/3 224/7/3 223/7/3
f 232/7/3 224/7/3 231/7/3
f 233/4/3 230/4/3 229/4/3
f 234/4/3 230/4/3 233/4/3
f 239/7/3 236/7/3 235/7/3
f 240/7/3 236/7/3 239/7/3
f 245/4/3 238/4/3 237/4/3
f 246/4/3 238/4/3 245/4/3
f 247/4/3 243/4/3 242/4/3
f 247/5/3 242/5/3 241/5/3
f 248/4/3 243/4/3 247/4/3
f 249/4/3 245/4/3 244/4/3
f 250/4/3 245/4/3 249/4/3
f 251/5/3 247/5/3 241/5/3
f 252/5/3 247/5/3 251/5/3
f 253/6/3 252/6/3 251/6/3
f 254/6/3 252/6/3 253/6/3
f 255/3/3 254/3/3 253/3/3
f 256/3/3 254/3/3 255/3/3
f 259/5/3 258/5/3 257/5/3
f 260/5/3 258/5/3 259/5/3
f 261/6/4 262/6/4 263/6/4
f 263/6/4 262/6/4 264/6/4
f 265/3/4 266/3/4 267/3/4
f 267/3/4 266/3/4 268/3/4
f 267/6/4 268/6/4 269/6/4
f 269/6/4 268/6/4 270/6/4
f 269/5/4 270/5/4 271/5/4
f 269/5/4 271/5/4 275/5/4
f 275/5/4 271/5/4 276/5/4
f 272/5/4 273/5/4 277/5/4
f 273/7/4 274/7/4 278/7/4
f 277/5/4 273/5/4 278/5/4
f 278/7/4 274/7/4 279/7/4
f 280/5/4 281/5/4 283/5/4
f 281/7/4 282/7/4 284/7/4
f 283/5/4 281/5/4 284/5/4
f 284/7/4 282/7/4 285/7/4
f 286/5/4 287/5/4 288/5/4
f 286/5/4 288/5/4 289/5/4
f 289/5/4 288/5/4 290/5/4
f 289/6/4 290/6/4 291/6/4
f 291/6/4 290/6/4 292/6/4
f 291/3/4 292/3/4 293/3/4
f 293/3/4 292/3/4 294/3/4
f 295/4/4 296/4/4 301/4/4
f 301/4/4 296/4/4 302/4/4
f 297/4/4 298/4/4 303/4/4
f 303/4/4 298/4/4 304/4/4
f 299/5/4 300/5/4 306/5/4
f 306/5/4 300/5/4 307/5/4
f 304/4/4 305/4/4 308/4/4
f 308/4/4 305/4/4 309/4/4
f 299/5/4 306/5/4 310/5/4
f 299/5/4 310/5/4 314/5/4
f 310/5/4 311/5/4 314/5/4
f 314/5/4 311/5/4 315/5/4
f 312/4/4 313/4/4 319/4/4
f 319/4/4 313/4/4 320/4/4
f 316/4/4 317/4/4 321/4/4
f 321/4/4 317/4/4 322/4/4
f 318/4/4 319/4/4 323/4/4
f 323/4/4 319/4/4 324/4/4
f 325/4/4 326/4/4 328/4/4
f 328/4/4 326/4/4 329/4/4
f 327/4/4 328/4/4 332/4/4
f 329/4/4 330/4/4 332/4/4
f 328/4/4 329/4/4 332/4/4
f 332/4/4 330/4/4 333/4/4
f 333/4/4 330/4/4 334/4/4
f 331/4/4 332/4/4 336/4/4
f 332/4/4 333/4/4 336/4/4
f 336/4/4 333/4/4 337/4/4
f 337/4/4 333/4/4 338/4/4
f 334/4/4 335/4/4 339/4/4
f 339/4/4 335/4/4 340/4/4
f 337/4/4 338/4/4 341/4/4
f 338/4/4 339/4/4 341/4/4
f 341/4/4 339/4/4 342/4/4
f 342/4/4 339/4/4 343/4/4
f 343/4/4 339/4/4 344/4/4
f 342/4/4 343/4/4 345/4/4
f 345/4/4 343/4/4 346/4/4
f 347/4/4 348/4/4 349/4/4
f 349/4/4 348/4/4 350/4/4
f 355/5/5 352/5/5 351/5/5
f 356/5/5 352/5/5 355/5/5
f 357/5/5 354/5/5 353/5/5
f 358/5/5 354/5/5 357/5/5
f 363/5/5 360/5/5 359/5/5
f 364/6/5 361/6/5 360/6/5
f 364/5/5 360/5/5 363/5/5
f 365/5/5 362/5/5 361/5/5
f 365/6/5 361/6/5 364/6/5
f 366/5/5 362/5/5 365/5/5
f 371/5/5 368/5/5 367/5/5
f 371/5/5 370/5/5 369/5/5
f 371/5/5 369/5/5 368/5/5
f 372/5/5 370/5/5 371/5/5
f 375/5/5 374/5/5 373/5/5
f 376/5/5 374/5/5 375/5/5
f 379/4/5 378/4/5 377/4/5
f 380/4/5 378/4/5 379/4/5
f 389/3/5 382/3/5 381/3/5
f 390/6/5 383/6/5 382/6/5
f 390/3/5 382/3/5 389/3/5
f 391/5/5 384/5/5 383/5/5
f 391/6/5 383/6/5 390/6/5
f 392/5/5 384/5/5 391/5/5
f 393/5/5 386/5/5 385/5/5
f 394/6/5 387/6/5 386/6/5
f 394/5/5 386/5/5 393/5/5
f 395/3/5 388/3/5 387/3/5
f 395/6/5 387/6/5 394/6/5
f 396/3/5 388/3/5 395/3/5
f 401/4/5 398/4/5 397/4/5
f 402/4/5 398/4/5 401/4/5
f 403/4/5 400/4/5 399/4/5
f 404/4/5 400/4/5 403/4/5
f 409/4/5 406/4/5 405/4/5
f 410/4/5 406/4/5 409/4/5
f 411/4/5 408/4/5 407/4/5
f 412/4/5 408/4/5 411/4/5
f 415/4/5 414/4/5 413/4/5
f 416/4/5 414/4/5 415/4/5
f 421/4/5 418/4/5 417/4/5
f 422/4/5 418/4/5 421/4/5
f 423/4/5 420/4/5 419/4/5
f 424/4/5 420/4/5 423/4/5
f 429/4/5 426/4/5 425/4/5
f 430/4/5 426/4/5 429/4/5
f 431/4/5 428/4/5 427/4/5
f 432/4/5 428/4/5 431/4/5
f 435/4/5 434/4/5 433/4/5
f 436/4/5 434/4/5 435/4/5
f 439/4/5 438/4/5 437/4/5
f 440/4/5 438/4/5 439/4/5
f 441/5/6 442/5/6 445/5/6
f 445/5/6 442/5/6 446/5/6
f 443/5/6 444/5/6 447/5/6
f 447/5/6 444/5/6 448/5/6
f 449/3/6 450/3/6 457/3/6
f 450/6/6 451/6/6 458/6/6
f 457/3/6 450/3/6 458/3/6
f 451/5/6 452/5/6 459/5/6
f 458/6/6 451/6/6 459/6/6
f 459/5/6 452/5/6 460/5/6
f 453/5/6 454/5/6 461/5/6
f 454/6/6 455/6/6 462/6/6
f 461/5/6 454/5/6 462/5/6
f 455/3/6 456/3/6 463/3/6
f 462/6/6 455/6/6 463/6/6
f 463/3/6 456/3/6 464/3/6
f 465/4/6 466/4/6 469/4/6
f 469/4/6 466/4/6 470/4/6
f 467/4/6 468/4/6 471/4/6
f 471/4/6 468/4/6 472/4/6
f 473/4/6 474/4/6 477/4/6
f 477/4/6 474/4/6 478/4/6
f 475/4/6 476/4/6 479/4/6
f 479/4/6 476/4/6 480/4/6
f 481/4/6 482/4/6 484/4/6
f 484/4/6 482/4/6 485/4/6
f 483/4/6 484/4/6 488/4/6
f 488/4/6 484/4/6 489/4/6
f 485/4/6 486/4/6 490/4/6
f 490/4/6 486/4/6 491/4/6
f 487/4/6 488/4/6 493/4/6
f 493/4/6 488/4/6 494/4/6
f 491/4/6 492/4/6 497/4/6
f 497/4/6 492/4/6 498/4/6
f 494/4/6 495/4/6 499/4/6
f 499/4/6 495/4/6 500/4/6
f 496/4/6 497/4/6 501/4/6
f 501/4/6 497/4/6 502/4/6
f 500/4/6 501/4/6 503/4/6
f 503/4/6 501/4/6 504/4/6
f 505/4/6 506/4/6 508/4/6
f 508/4/6 506/4/6 509/4/6
f 507/4/6 508/4/6 511/4/6
f 509/4/6 510/4/6 511/4/6
f 508/4/6 509/4/6 511/4/6
f 511/4/6 510/4/6 512/4/6
f 512/4/6 510/4/6 513/4/6
f 513/4/6 510/4/6 514/4/6
f 512/4/6 513/4/6 515/4/6
f 515/4/6 513/4/6 516/4/6
