# MagicaVoxel @ Ephtracy

# group
o 

# material
mtllib lv1_turret.mtl
usemtl palette

# normals
vn -1 0 0
vn 1 0 0
vn 0 0 1
vn 0 0 -1
vn 0 -1 0
vn 0 1 0

# texcoords
vt 0.662109 0.5
vt 0.666016 0.5
vt 0.669922 0.5
vt 0.982422 0.5
vt 0.986328 0.5
vt 0.990234 0.5
vt 0.994141 0.5

# verts
v 0.6 3.1 0
v 0.6 3.1 -0.8
v 0.6 3.2 -0.1
v 0.6 3.2 -0.7
v 0.6 3.7 -0.1
v 0.6 3.7 -0.7
v 0.6 3.8 0
v 0.6 3.8 -0.8
v 1 3 -0.2
v 1 3 -0.6
v 1 3.1 -0.2
v 1 3.1 -0.6
v 1.1 3 -0.1
v 1.1 3 -0.2
v 1.1 3 -0.6
v 1.1 3 -0.7
v 1.1 3.1 -0.1
v 1.1 3.1 -0.2
v 1.1 3.1 -0.6
v 1.1 3.1 -0.7
v 1.5 3 -0.1
v 1.5 3 -0.2
v 1.5 3 -0.6
v 1.5 3 -0.7
v 1.5 3.1 -0.1
v 1.5 3.1 -0.2
v 1.5 3.1 -0.6
v 1.5 3.1 -0.7
v 1.6 3 -0.2
v 1.6 3 -0.6
v 1.6 3.1 -0.2
v 1.6 3.1 -0.6
v 1.9 3.1 0
v 1.9 3.1 -0.8
v 1.9 3.2 -0.1
v 1.9 3.2 -0.7
v 1.9 3.3 -0.3
v 1.9 3.3 -0.4
v 1.9 3.3 -0.5
v 1.9 3.4 -0.3
v 1.9 3.4 -0.5
v 1.9 3.5 -0.3
v 1.9 3.5 -0.4
v 1.9 3.5 -0.5
v 1.9 3.7 -0.1
v 1.9 3.7 -0.7
v 1.9 3.8 0
v 1.9 3.8 -0.8
v 2.6 3.3 -0.3
v 2.6 3.3 -0.4
v 2.6 3.3 -0.5
v 2.6 3.4 -0.3
v 2.6 3.4 -0.4
v 2.6 3.4 -0.5
v 2.6 3.5 -0.3
v 2.6 3.5 -0.4
v 2.6 3.5 -0.5
v 0.6 3.1 0
v 0.6 3.8 0
v 0.7 3.1 0
v 0.7 3.8 0
v 0.8 3.5 0
v 0.8 3.6 0
v 0.9 3.4 0
v 0.9 3.5 0
v 0.9 3.6 0
v 1 3.3 0
v 1 3.4 0
v 1 3.5 0
v 1.1 3.3 0
v 1.1 3.4 0
v 1.1 3.5 0
v 1.1 3.6 0
v 1.2 3.4 0
v 1.2 3.5 0
v 1.2 3.6 0
v 1.3 3.3 0
v 1.3 3.4 0
v 1.3 3.5 0
v 1.4 3.3 0
v 1.4 3.4 0
v 1.4 3.5 0
v 1.4 3.6 0
v 1.5 3.4 0
v 1.5 3.5 0
v 1.5 3.6 0
v 1.6 3.3 0
v 1.6 3.4 0
v 1.6 3.5 0
v 1.7 3.3 0
v 1.7 3.4 0
v 1.8 3.1 0
v 1.8 3.8 0
v 1.9 3.1 0
v 1.9 3.8 0
v 1.1 3 -0.1
v 1.1 3.1 -0.1
v 1.5 3 -0.1
v 1.5 3.1 -0.1
v 1 3 -0.2
v 1 3.1 -0.2
v 1.1 3 -0.2
v 1.1 3.1 -0.2
v 1.5 3 -0.2
v 1.5 3.1 -0.2
v 1.6 3 -0.2
v 1.6 3.1 -0.2
v 1.9 3.3 -0.3
v 1.9 3.4 -0.3
v 1.9 3.5 -0.3
v 2 3.3 -0.3
v 2 3.4 -0.3
v 2 3.5 -0.3
v 2.1 3.3 -0.3
v 2.1 3.4 -0.3
v 2.1 3.5 -0.3
v 2.2 3.3 -0.3
v 2.2 3.4 -0.3
v 2.2 3.5 -0.3
v 2.3 3.3 -0.3
v 2.3 3.4 -0.3
v 2.3 3.5 -0.3
v 2.4 3.3 -0.3
v 2.4 3.4 -0.3
v 2.4 3.5 -0.3
v 2.5 3.3 -0.3
v 2.5 3.4 -0.3
v 2.5 3.5 -0.3
v 2.6 3.3 -0.3
v 2.6 3.4 -0.3
v 2.6 3.5 -0.3
v 1.9 3.3 -0.5
v 1.9 3.4 -0.5
v 1.9 3.5 -0.5
v 2 3.3 -0.5
v 2 3.4 -0.5
v 2 3.5 -0.5
v 2.1 3.3 -0.5
v 2.1 3.4 -0.5
v 2.1 3.5 -0.5
v 2.2 3.3 -0.5
v 2.2 3.4 -0.5
v 2.2 3.5 -0.5
v 2.3 3.3 -0.5
v 2.3 3.4 -0.5
v 2.3 3.5 -0.5
v 2.4 3.3 -0.5
v 2.4 3.4 -0.5
v 2.4 3.5 -0.5
v 2.5 3.3 -0.5
v 2.5 3.4 -0.5
v 2.5 3.5 -0.5
v 2.6 3.3 -0.5
v 2.6 3.4 -0.5
v 2.6 3.5 -0.5
v 1 3 -0.6
v 1 3.1 -0.6
v 1.1 3 -0.6
v 1.1 3.1 -0.6
v 1.5 3 -0.6
v 1.5 3.1 -0.6
v 1.6 3 -0.6
v 1.6 3.1 -0.6
v 1.1 3 -0.7
v 1.1 3.1 -0.7
v 1.5 3 -0.7
v 1.5 3.1 -0.7
v 0.6 3.1 -0.8
v 0.6 3.8 -0.8
v 0.7 3.1 -0.8
v 0.7 3.8 -0.8
v 0.8 3.5 -0.8
v 0.8 3.6 -0.8
v 0.9 3.4 -0.8
v 0.9 3.5 -0.8
v 0.9 3.6 -0.8
v 1 3.3 -0.8
v 1 3.4 -0.8
v 1 3.5 -0.8
v 1.1 3.3 -0.8
v 1.1 3.4 -0.8
v 1.1 3.5 -0.8
v 1.1 3.6 -0.8
v 1.2 3.4 -0.8
v 1.2 3.5 -0.8
v 1.2 3.6 -0.8
v 1.3 3.3 -0.8
v 1.3 3.4 -0.8
v 1.3 3.5 -0.8
v 1.4 3.3 -0.8
v 1.4 3.4 -0.8
v 1.4 3.5 -0.8
v 1.4 3.6 -0.8
v 1.5 3.4 -0.8
v 1.5 3.5 -0.8
v 1.5 3.6 -0.8
v 1.6 3.3 -0.8
v 1.6 3.4 -0.8
v 1.6 3.5 -0.8
v 1.7 3.3 -0.8
v 1.7 3.4 -0.8
v 1.8 3.1 -0.8
v 1.8 3.8 -0.8
v 1.9 3.1 -0.8
v 1.9 3.8 -0.8
v 1.1 3 -0.1
v 1.5 3 -0.1
v 1 3 -0.2
v 1.1 3 -0.2
v 1.5 3 -0.2
v 1.6 3 -0.2
v 1 3 -0.6
v 1.1 3 -0.6
v 1.5 3 -0.6
v 1.6 3 -0.6
v 1.1 3 -0.7
v 1.5 3 -0.7
v 0.6 3.1 0
v 0.7 3.1 0
v 1.8 3.1 0
v 1.9 3.1 0
v 1.1 3.1 -0.1
v 1.5 3.1 -0.1
v 1 3.1 -0.2
v 1.1 3.1 -0.2
v 1.5 3.1 -0.2
v 1.6 3.1 -0.2
v 1 3.1 -0.6
v 1.1 3.1 -0.6
v 1.5 3.1 -0.6
v 1.6 3.1 -0.6
v 1.1 3.1 -0.7
v 1.5 3.1 -0.7
v 0.6 3.1 -0.8
v 0.7 3.1 -0.8
v 1.8 3.1 -0.8
v 1.9 3.1 -0.8
v 1.9 3.3 -0.3
v 2 3.3 -0.3
v 2.1 3.3 -0.3
v 2.2 3.3 -0.3
v 2.3 3.3 -0.3
v 2.4 3.3 -0.3
v 2.5 3.3 -0.3
v 2.6 3.3 -0.3
v 1.9 3.3 -0.4
v 2 3.3 -0.4
v 2.1 3.3 -0.4
v 2.2 3.3 -0.4
v 2.3 3.3 -0.4
v 2.4 3.3 -0.4
v 2.5 3.3 -0.4
v 2.6 3.3 -0.4
v 1.9 3.3 -0.5
v 2 3.3 -0.5
v 2.1 3.3 -0.5
v 2.2 3.3 -0.5
v 2.3 3.3 -0.5
v 2.4 3.3 -0.5
v 2.5 3.3 -0.5
v 2.6 3.3 -0.5
v 1.9 3.5 -0.3
v 2 3.5 -0.3
v 2.1 3.5 -0.3
v 2.2 3.5 -0.3
v 2.3 3.5 -0.3
v 2.4 3.5 -0.3
v 2.5 3.5 -0.3
v 2.6 3.5 -0.3
v 1.9 3.5 -0.4
v 2 3.5 -0.4
v 2.1 3.5 -0.4
v 2.2 3.5 -0.4
v 2.3 3.5 -0.4
v 2.4 3.5 -0.4
v 2.5 3.5 -0.4
v 2.6 3.5 -0.4
v 1.9 3.5 -0.5
v 2 3.5 -0.5
v 2.1 3.5 -0.5
v 2.2 3.5 -0.5
v 2.3 3.5 -0.5
v 2.4 3.5 -0.5
v 2.5 3.5 -0.5
v 2.6 3.5 -0.5
v 0.6 3.8 0
v 0.7 3.8 0
v 1.8 3.8 0
v 1.9 3.8 0
v 0.6 3.8 -0.8
v 0.7 3.8 -0.8
v 1.8 3.8 -0.8
v 1.9 3.8 -0.8

# faces
f 3/1/1 2/1/1 1/1/1
f 4/1/1 2/1/1 3/1/1
f 5/1/1 3/1/1 1/1/1
f 5/2/1 4/2/1 3/2/1
f 6/1/1 2/1/1 4/1/1
f 6/2/1 4/2/1 5/2/1
f 7/1/1 5/1/1 1/1/1
f 7/1/1 6/1/1 5/1/1
f 8/1/1 2/1/1 6/1/1
f 8/1/1 6/1/1 7/1/1
f 11/4/1 10/4/1 9/4/1
f 12/4/1 10/4/1 11/4/1
f 17/4/1 14/4/1 13/4/1
f 18/4/1 14/4/1 17/4/1
f 19/4/1 16/4/1 15/4/1
f 20/4/1 16/4/1 19/4/1
f 21/4/2 22/4/2 25/4/2
f 25/4/2 22/4/2 26/4/2
f 23/4/2 24/4/2 27/4/2
f 27/4/2 24/4/2 28/4/2
f 29/4/2 30/4/2 31/4/2
f 31/4/2 30/4/2 32/4/2
f 33/1/2 34/1/2 35/1/2
f 35/1/2 34/1/2 36/1/2
f 35/2/2 36/2/2 37/2/2
f 37/2/2 36/2/2 38/2/2
f 38/2/2 36/2/2 39/2/2
f 35/2/2 37/2/2 40/2/2
f 39/2/2 36/2/2 41/2/2
f 35/2/2 40/2/2 42/2/2
f 41/2/2 36/2/2 44/2/2
f 33/1/2 35/1/2 45/1/2
f 43/2/2 44/2/2 45/2/2
f 42/2/2 43/2/2 45/2/2
f 35/2/2 42/2/2 45/2/2
f 44/2/2 36/2/2 46/2/2
f 45/2/2 44/2/2 46/2/2
f 36/1/2 34/1/2 46/1/2
f 33/1/2 45/1/2 47/1/2
f 45/1/2 46/1/2 47/1/2
f 46/1/2 34/1/2 48/1/2
f 47/1/2 46/1/2 48/1/2
f 49/7/2 50/7/2 52/7/2
f 50/6/2 51/6/2 53/6/2
f 52/7/2 50/7/2 53/7/2
f 53/6/2 51/6/2 54/6/2
f 52/6/2 53/6/2 55/6/2
f 53/7/2 54/7/2 56/7/2
f 55/6/2 53/6/2 56/6/2
f 56/7/2 54/7/2 57/7/2
f 60/1/3 59/1/3 58/1/3
f 61/1/3 59/1/3 60/1/3
f 62/2/3 61/2/3 60/2/3
f 63/2/3 61/2/3 62/2/3
f 64/2/3 62/2/3 60/2/3
f 65/3/3 63/3/3 62/3/3
f 65/2/3 62/2/3 64/2/3
f 66/2/3 61/2/3 63/2/3
f 66/3/3 63/3/3 65/3/3
f 67/2/3 64/2/3 60/2/3
f 68/3/3 65/3/3 64/3/3
f 68/2/3 64/2/3 67/2/3
f 69/2/3 66/2/3 65/2/3
f 69/3/3 65/3/3 68/3/3
f 70/2/3 67/2/3 60/2/3
f 70/3/3 68/3/3 67/3/3
f 71/2/3 69/2/3 68/2/3
f 71/3/3 68/3/3 70/3/3
f 72/2/3 66/2/3 69/2/3
f 72/2/3 69/2/3 71/2/3
f 73/2/3 61/2/3 66/2/3
f 73/2/3 66/2/3 72/2/3
f 74/2/3 71/2/3 70/2/3
f 74/2/3 72/2/3 71/2/3
f 75/3/3 73/3/3 72/3/3
f 75/2/3 72/2/3 74/2/3
f 76/2/3 61/2/3 73/2/3
f 76/3/3 73/3/3 75/3/3
f 77/2/3 74/2/3 70/2/3
f 77/2/3 70/2/3 60/2/3
f 78/3/3 75/3/3 74/3/3
f 78/2/3 74/2/3 77/2/3
f 79/2/3 76/2/3 75/2/3
f 79/3/3 75/3/3 78/3/3
f 80/2/3 77/2/3 60/2/3
f 80/3/3 78/3/3 77/3/3
f 81/2/3 79/2/3 78/2/3
f 81/3/3 78/3/3 80/3/3
f 82/2/3 76/2/3 79/2/3
f 82/2/3 79/2/3 81/2/3
f 83/2/3 61/2/3 76/2/3
f 83/2/3 76/2/3 82/2/3
f 84/2/3 81/2/3 80/2/3
f 84/2/3 82/2/3 81/2/3
f 85/3/3 83/3/3 82/3/3
f 85/2/3 82/2/3 84/2/3
f 86/2/3 61/2/3 83/2/3
f 86/3/3 83/3/3 85/3/3
f 87/2/3 84/2/3 80/2/3
f 87/2/3 80/2/3 60/2/3
f 88/3/3 85/3/3 84/3/3
f 88/2/3 84/2/3 87/2/3
f 89/2/3 86/2/3 85/2/3
f 89/3/3 85/3/3 88/3/3
f 90/2/3 87/2/3 60/2/3
f 90/3/3 88/3/3 87/3/3
f 91/2/3 89/2/3 88/2/3
f 91/3/3 88/3/3 90/3/3
f 92/2/3 90/2/3 60/2/3
f 92/2/3 91/2/3 90/2/3
f 93/2/3 86/2/3 89/2/3
f 93/2/3 91/2/3 92/2/3
f 93/2/3 61/2/3 86/2/3
f 93/2/3 89/2/3 91/2/3
f 94/1/3 93/1/3 92/1/3
f 95/1/3 93/1/3 94/1/3
f 98/4/3 97/4/3 96/4/3
f 99/4/3 97/4/3 98/4/3
f 102/4/3 101/4/3 100/4/3
f 103/4/3 101/4/3 102/4/3
f 106/4/3 105/4/3 104/4/3
f 107/4/3 105/4/3 106/4/3
f 111/7/3 109/7/3 108/7/3
f 112/6/3 110/6/3 109/6/3
f 112/7/3 109/7/3 111/7/3
f 113/6/3 110/6/3 112/6/3
f 114/6/3 112/6/3 111/6/3
f 115/7/3 113/7/3 112/7/3
f 115/6/3 112/6/3 114/6/3
f 116/7/3 113/7/3 115/7/3
f 117/7/3 115/7/3 114/7/3
f 118/6/3 116/6/3 115/6/3
f 118/7/3 115/7/3 117/7/3
f 119/6/3 116/6/3 118/6/3
f 120/6/3 118/6/3 117/6/3
f 121/7/3 119/7/3 118/7/3
f 121/6/3 118/6/3 120/6/3
f 122/7/3 119/7/3 121/7/3
f 123/7/3 121/7/3 120/7/3
f 124/6/3 122/6/3 121/6/3
f 124/7/3 121/7/3 123/7/3
f 125/6/3 122/6/3 124/6/3
f 126/6/3 124/6/3 123/6/3
f 127/7/3 125/7/3 124/7/3
f 127/6/3 124/6/3 126/6/3
f 128/7/3 125/7/3 127/7/3
f 129/7/3 127/7/3 126/7/3
f 130/6/3 128/6/3 127/6/3
f 130/7/3 127/7/3 129/7/3
f 131/6/3 128/6/3 130/6/3
f 132/6/4 133/6/4 135/6/4
f 133/7/4 134/7/4 136/7/4
f 135/6/4 133/6/4 136/6/4
f 136/7/4 134/7/4 137/7/4
f 135/7/4 136/7/4 138/7/4
f 136/6/4 137/6/4 139/6/4
f 138/7/4 136/7/4 139/7/4
f 139/6/4 137/6/4 140/6/4
f 138/6/4 139/6/4 141/6/4
f 139/7/4 140/7/4 142/7/4
f 141/6/4 139/6/4 142/6/4
f 142/7/4 140/7/4 143/7/4
f 141/7/4 142/7/4 144/7/4
f 142/6/4 143/6/4 145/6/4
f 144/7/4 142/7/4 145/7/4
f 145/6/4 143/6/4 146/6/4
f 144/6/4 145/6/4 147/6/4
f 145/7/4 146/7/4 148/7/4
f 147/6/4 145/6/4 148/6/4
f 148/7/4 146/7/4 149/7/4
f 147/7/4 148/7/4 150/7/4
f 148/6/4 149/6/4 151/6/4
f 150/7/4 148/7/4 151/7/4
f 151/6/4 149/6/4 152/6/4
f 150/6/4 151/6/4 153/6/4
f 151/7/4 152/7/4 154/7/4
f 153/6/4 151/6/4 154/6/4
f 154/7/4 152/7/4 155/7/4
f 156/4/4 157/4/4 158/4/4
f 158/4/4 157/4/4 159/4/4
f 160/4/4 161/4/4 162/4/4
f 162/4/4 161/4/4 163/4/4
f 164/4/4 165/4/4 166/4/4
f 166/4/4 165/4/4 167/4/4
f 168/1/4 169/1/4 170/1/4
f 170/1/4 169/1/4 171/1/4
f 170/2/4 171/2/4 172/2/4
f 172/2/4 171/2/4 173/2/4
f 170/2/4 172/2/4 174/2/4
f 172/3/4 173/3/4 175/3/4
f 174/2/4 172/2/4 175/2/4
f 173/2/4 171/2/4 176/2/4
f 175/3/4 173/3/4 176/3/4
f 170/2/4 174/2/4 177/2/4
f 174/3/4 175/3/4 178/3/4
f 177/2/4 174/2/4 178/2/4
f 175/2/4 176/2/4 179/2/4
f 178/3/4 175/3/4 179/3/4
f 170/2/4 177/2/4 180/2/4
f 177/3/4 178/3/4 180/3/4
f 178/2/4 179/2/4 181/2/4
f 180/3/4 178/3/4 181/3/4
f 179/2/4 176/2/4 182/2/4
f 181/2/4 179/2/4 182/2/4
f 176/2/4 171/2/4 183/2/4
f 182/2/4 176/2/4 183/2/4
f 180/2/4 181/2/4 184/2/4
f 181/2/4 182/2/4 184/2/4
f 182/3/4 183/3/4 185/3/4
f 184/2/4 182/2/4 185/2/4
f 183/2/4 171/2/4 186/2/4
f 185/3/4 183/3/4 186/3/4
f 180/2/4 184/2/4 187/2/4
f 170/2/4 180/2/4 187/2/4
f 184/3/4 185/3/4 188/3/4
f 187/2/4 184/2/4 188/2/4
f 185/2/4 186/2/4 189/2/4
f 188/3/4 185/3/4 189/3/4
f 170/2/4 187/2/4 190/2/4
f 187/3/4 188/3/4 190/3/4
f 188/2/4 189/2/4 191/2/4
f 190/3/4 188/3/4 191/3/4
f 189/2/4 186/2/4 192/2/4
f 191/2/4 189/2/4 192/2/4
f 186/2/4 171/2/4 193/2/4
f 192/2/4 186/2/4 193/2/4
f 190/2/4 191/2/4 194/2/4
f 191/2/4 192/2/4 194/2/4
f 192/3/4 193/3/4 195/3/4
f 194/2/4 192/2/4 195/2/4
f 193/2/4 171/2/4 196/2/4
f 195/3/4 193/3/4 196/3/4
f 190/2/4 194/2/4 197/2/4
f 170/2/4 190/2/4 197/2/4
f 194/3/4 195/3/4 198/3/4
f 197/2/4 194/2/4 198/2/4
f 195/2/4 196/2/4 199/2/4
f 198/3/4 195/3/4 199/3/4
f 170/2/4 197/2/4 200/2/4
f 197/3/4 198/3/4 200/3/4
f 198/2/4 199/2/4 201/2/4
f 200/3/4 198/3/4 201/3/4
f 170/2/4 200/2/4 202/2/4
f 200/2/4 201/2/4 202/2/4
f 199/2/4 196/2/4 203/2/4
f 202/2/4 201/2/4 203/2/4
f 196/2/4 171/2/4 203/2/4
f 201/2/4 199/2/4 203/2/4
f 202/1/4 203/1/4 204/1/4
f 204/1/4 203/1/4 205/1/4
f 209/4/5 207/4/5 206/4/5
f 210/4/5 207/4/5 209/4/5
f 212/4/5 209/4/5 208/4/5
f 212/4/5 211/4/5 210/4/5
f 212/4/5 210/4/5 209/4/5
f 213/4/5 211/4/5 212/4/5
f 214/4/5 211/4/5 213/4/5
f 215/4/5 211/4/5 214/4/5
f 216/4/5 214/4/5 213/4/5
f 217/4/5 214/4/5 216/4/5
f 222/2/5 220/2/5 219/2/5
f 223/2/5 220/2/5 222/2/5
f 224/2/5 222/2/5 219/2/5
f 225/2/5 222/2/5 224/2/5
f 226/2/5 220/2/5 223/2/5
f 227/2/5 220/2/5 226/2/5
f 228/2/5 224/2/5 219/2/5
f 231/2/5 220/2/5 227/2/5
f 232/2/5 229/2/5 228/2/5
f 233/2/5 231/2/5 230/2/5
f 234/1/5 219/1/5 218/1/5
f 235/2/5 233/2/5 232/2/5
f 235/1/5 219/1/5 234/1/5
f 235/2/5 232/2/5 228/2/5
f 235/2/5 228/2/5 219/2/5
f 236/1/5 221/1/5 220/1/5
f 236/2/5 233/2/5 235/2/5
f 236/2/5 231/2/5 233/2/5
f 236/2/5 220/2/5 231/2/5
f 237/1/5 221/1/5 236/1/5
f 246/7/5 239/7/5 238/7/5
f 247/6/5 240/6/5 239/6/5
f 247/7/5 239/7/5 246/7/5
f 248/7/5 241/7/5 240/7/5
f 248/6/5 240/6/5 247/6/5
f 249/6/5 242/6/5 241/6/5
f 249/7/5 241/7/5 248/7/5
f 250/7/5 243/7/5 242/7/5
f 250/6/5 242/6/5 249/6/5
f 251/6/5 244/6/5 243/6/5
f 251/7/5 243/7/5 250/7/5
f 252/7/5 245/7/5 244/7/5
f 252/6/5 244/6/5 251/6/5
f 253/7/5 245/7/5 252/7/5
f 254/6/5 247/6/5 246/6/5
f 255/7/5 248/7/5 247/7/5
f 255/6/5 247/6/5 254/6/5
f 256/6/5 249/6/5 248/6/5
f 256/7/5 248/7/5 255/7/5
f 257/7/5 250/7/5 249/7/5
f 257/6/5 249/6/5 256/6/5
f 258/6/5 251/6/5 250/6/5
f 258/7/5 250/7/5 257/7/5
f 259/7/5 252/7/5 251/7/5
f 259/6/5 251/6/5 258/6/5
f 260/6/5 253/6/5 252/6/5
f 260/7/5 252/7/5 259/7/5
f 261/6/5 253/6/5 260/6/5
f 262/6/6 263/6/6 270/6/6
f 263/7/6 264/7/6 271/7/6
f 270/6/6 263/6/6 271/6/6
f 264/6/6 265/6/6 272/6/6
f 271/7/6 264/7/6 272/7/6
f 265/7/6 266/7/6 273/7/6
f 272/6/6 265/6/6 273/6/6
f 266/6/6 267/6/6 274/6/6
f 273/7/6 266/7/6 274/7/6
f 267/7/6 268/7/6 275/7/6
f 274/6/6 267/6/6 275/6/6
f 268/6/6 269/6/6 276/6/6
f 275/7/6 268/7/6 276/7/6
f 276/6/6 269/6/6 277/6/6
f 270/7/6 271/7/6 278/7/6
f 271/6/6 272/6/6 279/6/6
f 278/7/6 271/7/6 279/7/6
f 272/7/6 273/7/6 280/7/6
f 279/6/6 272/6/6 280/6/6
f 273/6/6 274/6/6 281/6/6
f 280/7/6 273/7/6 281/7/6
f 274/7/6 275/7/6 282/7/6
f 281/6/6 274/6/6 282/6/6
f 275/6/6 276/6/6 283/6/6
f 282/7/6 275/7/6 283/7/6
f 276/7/6 277/7/6 284/7/6
f 283/6/6 276/6/6 284/6/6
f 284/7/6 277/7/6 285/7/6
f 286/1/6 287/1/6 290/1/6
f 287/2/6 288/2/6 291/2/6
f 290/1/6 287/1/6 291/1/6
f 288/1/6 289/1/6 292/1/6
f 291/2/6 288/2/6 292/2/6
f 292/1/6 289/1/6 293/1/6
